<svg id="visual" viewBox="0 0 3000 1440" width="3000" height="1440" xmlns="http://www.w3.org/2000/svg" xmlns:xlink="http://www.w3.org/1999/xlink" version="1.1"><path d="M0 1265L55.5 1274.2C111 1283.3 222 1301.7 333.2 1315.3C444.3 1329 555.7 1338 666.8 1328.5C778 1319 889 1291 1000 1270.3C1111 1249.7 1222 1236.3 1333.2 1249.3C1444.3 1262.3 1555.7 1301.7 1666.8 1323C1778 1344.3 1889 1347.7 2000 1339.2C2111 1330.7 2222 1310.3 2333.2 1310.3C2444.3 1310.3 2555.7 1330.7 2666.8 1326.7C2778 1322.7 2889 1294.3 2944.5 1280.2L3000 1266L3000 1441L2944.5 1441C2889 1441 2778 1441 2666.8 1441C2555.7 1441 2444.3 1441 2333.2 1441C2222 1441 2111 1441 2000 1441C1889 1441 1778 1441 1666.8 1441C1555.7 1441 1444.3 1441 1333.2 1441C1222 1441 1111 1441 1000 1441C889 1441 778 1441 666.8 1441C555.7 1441 444.3 1441 333.2 1441C222 1441 111 1441 55.5 1441L0 1441Z" fill="#101417" stroke-linecap="round" stroke-linejoin="miter"></path></svg>