<svg id="visual" viewBox="0 0 3000 1440" width="3000" height="1440" xmlns="http://www.w3.org/2000/svg" xmlns:xlink="http://www.w3.org/1999/xlink" version="1.1"><path d="M0 1151L71.5 1168C143 1185 286 1219 428.8 1234.3C571.7 1249.7 714.3 1246.3 857.2 1215C1000 1183.7 1143 1124.3 1285.8 1122C1428.7 1119.7 1571.3 1174.3 1714.2 1185.7C1857 1197 2000 1165 2142.8 1161.2C2285.7 1157.3 2428.3 1181.7 2571.2 1183.8C2714 1186 2857 1166 2928.5 1156L3000 1146L3000 1441L2928.5 1441C2857 1441 2714 1441 2571.2 1441C2428.3 1441 2285.7 1441 2142.8 1441C2000 1441 1857 1441 1714.2 1441C1571.3 1441 1428.7 1441 1285.8 1441C1143 1441 1000 1441 857.2 1441C714.3 1441 571.7 1441 428.8 1441C286 1441 143 1441 71.5 1441L0 1441Z" fill="#101417" stroke-linecap="round" stroke-linejoin="miter"></path></svg>